Coordinates
version=1
nRows=7
nColumns=33
inDegrees=yes

Units are S.I. units (second, meters, Newtons, ...)
Angles are in degrees.

endheader
time	ground_thorax_rot_x	ground_thorax_rot_y	ground_thorax_rot_z	ground_thorax_tx	ground_thorax_ty	ground_thorax_tz	clav_prot_r	clav_elev_r	scapula_abduction_r	scapula_elevation_r	scapula_upward_rot_r	scapula_winging_r	shoulder_elv_r	plane_of_elev_r	axial_rot_r	elbow_flexion_r	pro_sup_r	wrist_flex_r	wrist_dev_r	clav_prot_l	clav_elev_l	scapula_abduction_l	scapula_elevation_l	scapula_upward_rot_l	scapula_winging_l	shoulder_elv_l	plane_of_elev_l	axial_rot_l	elbow_flexion_l	pro_sup_l	wrist_flex_l	wrist_dev_l
      7.91000000	    -20.06136670	    -39.74866520	     59.30227973	    -58.49483152	    788.22195821	    -37.22010646	     24.21779238	    -45.00000000	     42.90486351	    -45.00000000	    -31.45049384	  -2643.15901874	  -2619.84145106	    142.10093826	   -179.99999979	   1066.88859317	   -298.66162311	     20.91182621	     16.56605954	     -5.24856941	     33.47352706	    -25.48379106	    -45.00000000	    -45.00000000	   -989.03833104	  -1890.16365571	    136.60590187	   -128.50528913	   1789.39690474	     41.12518407	     12.48529411	    -15.44265009
      7.92000000	    -20.54515228	    -39.57517695	     58.58253699	    -60.93494012	    789.63281526	    -37.40678387	     24.19263481	    -45.00000000	     42.96455311	    -45.00000000	    -31.13442772	  -2643.08835219	  -2619.73657704	    142.16409427	   -179.99999979	   1066.94437070	   -298.83052520	     21.00048430	     16.63005266	     -5.22892163	     33.50109453	    -25.65320729	    -45.00000000	    -45.00000000	   -988.93092206	  -1890.13326079	    136.55878784	   -128.48665449	   1789.43177241	     41.29045952	     12.51607070	    -15.54296240
      7.93000000	    -21.04001778	    -39.36103542	     57.84039987	    -63.35965748	    791.07484254	    -37.59287250	     24.10078578	    -45.00000000	     42.95844860	    -45.00000000	    -30.79107695	  -2642.96179458	  -2619.53627758	    142.21674475	   -179.99999979	   1066.97405063	   -298.99570730	     21.10888573	     16.72803866	     -5.11251884	     33.52482162	    -25.83732721	    -45.00000000	    -45.00000000	   -988.90810121	  -1890.08944317	    136.55201780	   -128.42672977	   1789.44000931	     41.45990138	     12.53768415	    -15.61907379
      7.94000000	    -21.50035936	    -39.17973643	     57.13242655	    -65.75646882	    792.53484967	    -37.77265169	     24.08370337	    -45.00000000	     43.02787073	    -45.00000000	    -30.43776349	  -2642.91315342	  -2619.40433171	    142.25946813	   -179.99999979	   1067.03714058	   -299.16902866	     21.19940193	     16.77922299	     -5.08232623	     33.54787226	    -25.99029742	    -45.00000000	    -45.00000000	   -988.83297845	  -1890.04916771	    136.51699126	   -128.38535290	   1789.45289316	     41.61889952	     12.56315456	    -15.70154706
      7.95000000	    -22.02901343	    -38.91436508	     56.34502501	    -68.12498809	    794.01193291	    -37.94591367	     23.83781335	    -45.00000000	     42.90159902	    -45.00000000	    -30.13146749	  -2642.63326630	  -2619.09231757	    142.36058096	   -179.99999979	   1067.04563534	   -299.34118474	     21.34896640	     16.93247934	     -4.79317716	     33.56714106	    -26.20934997	    -45.00000000	    -45.00000000	   -988.90055220	  -1890.00309507	    136.56941003	   -128.25618555	   1789.46116355	     41.74305501	     12.57281834	    -15.74809640
      7.96000000	    -22.45975116	    -38.76800591	     55.66861509	    -70.46232638	    795.50551897	    -38.11327101	     23.93838088	    -45.00000000	     43.09002015	    -45.00000000	    -29.68948739	  -2642.72697059	  -2619.05186576	    142.36442871	   -179.99999979	   1067.10189725	   -299.51467717	     21.38668655	     16.91641634	     -4.90716513	     33.57729795	    -26.32461342	    -45.00000000	    -45.00000000	   -988.75240976	  -1889.94848570	    136.48207966	   -128.18725541	   1789.47825689	     41.84045612	     12.61636707	    -15.83776879
      7.97000000	    -22.93668649	    -38.52696959	     54.93696774	    -72.77745859	    797.02711546	    -38.27979255	     23.76174908	    -45.00000000	     43.04943917	    -45.00000000	    -29.36230740	  -2642.52461844	  -2618.78417405	    142.44803617	   -179.99999979	   1067.09641397	   -299.69047340	     21.50384967	     17.03711511	     -4.70303640	     33.59682473	    -26.51403827	    -45.00000000	    -45.00000000	   -988.78480286	  -1889.89196626	    136.51608225	   -128.05332869	   1789.48267578	     41.90184043	     12.63498762	    -15.88059801
